<mxfile host="app.diagrams.net" modified="2024-06-19T13:57:59.330Z" agent="Mozilla/5.0 (Windows NT 10.0; Win64; x64) AppleWebKit/537.36 (KHTML, like Gecko) Chrome/105.0.0.0 Safari/537.36 Edg/105.0.1343.42" etag="g4vNa6fu2ndNJfEQarHt" version="24.5.5" type="device">
  <diagram name="Página-1" id="2Vtm3RRzekawBUZ3djkN">
    <mxGraphModel dx="1433" dy="788" grid="1" gridSize="10" guides="1" tooltips="1" connect="1" arrows="1" fold="1" page="1" pageScale="1" pageWidth="827" pageHeight="1169" math="0" shadow="0">
      <root>
        <mxCell id="0" />
        <mxCell id="1" parent="0" />
        <mxCell id="Ldm5HKHkYfVYGcOgO9pY-1" value="Cliente" style="rounded=1;whiteSpace=wrap;html=1;" vertex="1" parent="1">
          <mxGeometry x="130" y="140" width="120" height="60" as="geometry" />
        </mxCell>
        <mxCell id="Ldm5HKHkYfVYGcOgO9pY-2" value="Produto" style="rounded=1;whiteSpace=wrap;html=1;" vertex="1" parent="1">
          <mxGeometry x="350" y="388" width="120" height="60" as="geometry" />
        </mxCell>
        <mxCell id="Ldm5HKHkYfVYGcOgO9pY-3" value="Pedido" style="rounded=1;whiteSpace=wrap;html=1;" vertex="1" parent="1">
          <mxGeometry x="520" y="130" width="120" height="60" as="geometry" />
        </mxCell>
        <mxCell id="Ldm5HKHkYfVYGcOgO9pY-6" value="" style="endArrow=none;html=1;rounded=0;" edge="1" parent="1">
          <mxGeometry width="50" height="50" relative="1" as="geometry">
            <mxPoint x="394.5" y="388" as="sourcePoint" />
            <mxPoint x="394.5" y="338" as="targetPoint" />
          </mxGeometry>
        </mxCell>
        <mxCell id="Ldm5HKHkYfVYGcOgO9pY-7" value="" style="endArrow=none;html=1;rounded=0;" edge="1" parent="1">
          <mxGeometry width="50" height="50" relative="1" as="geometry">
            <mxPoint x="150" y="140" as="sourcePoint" />
            <mxPoint x="150" y="100" as="targetPoint" />
          </mxGeometry>
        </mxCell>
        <mxCell id="Ldm5HKHkYfVYGcOgO9pY-9" value="" style="ellipse;whiteSpace=wrap;html=1;aspect=fixed;" vertex="1" parent="1">
          <mxGeometry x="145" y="90" width="10" height="10" as="geometry" />
        </mxCell>
        <mxCell id="Ldm5HKHkYfVYGcOgO9pY-10" value="Nome" style="text;html=1;align=center;verticalAlign=middle;resizable=0;points=[];autosize=1;strokeColor=none;fillColor=none;rotation=-90;" vertex="1" parent="1">
          <mxGeometry x="120" y="50" width="60" height="30" as="geometry" />
        </mxCell>
        <mxCell id="Ldm5HKHkYfVYGcOgO9pY-12" value="" style="endArrow=none;html=1;rounded=0;" edge="1" parent="1">
          <mxGeometry width="50" height="50" relative="1" as="geometry">
            <mxPoint x="175" y="140" as="sourcePoint" />
            <mxPoint x="175" y="100" as="targetPoint" />
          </mxGeometry>
        </mxCell>
        <mxCell id="Ldm5HKHkYfVYGcOgO9pY-13" value="Email" style="text;html=1;align=center;verticalAlign=middle;resizable=0;points=[];autosize=1;strokeColor=none;fillColor=none;rotation=-90;" vertex="1" parent="1">
          <mxGeometry x="150" y="50" width="50" height="30" as="geometry" />
        </mxCell>
        <mxCell id="Ldm5HKHkYfVYGcOgO9pY-14" value="" style="endArrow=none;html=1;rounded=0;" edge="1" parent="1">
          <mxGeometry width="50" height="50" relative="1" as="geometry">
            <mxPoint x="200" y="140" as="sourcePoint" />
            <mxPoint x="200" y="100" as="targetPoint" />
          </mxGeometry>
        </mxCell>
        <mxCell id="Ldm5HKHkYfVYGcOgO9pY-15" value="Telefone" style="text;html=1;align=center;verticalAlign=middle;resizable=0;points=[];autosize=1;strokeColor=none;fillColor=none;rotation=-90;" vertex="1" parent="1">
          <mxGeometry x="165" y="50" width="70" height="30" as="geometry" />
        </mxCell>
        <mxCell id="Ldm5HKHkYfVYGcOgO9pY-17" value="Data" style="text;html=1;align=center;verticalAlign=middle;resizable=0;points=[];autosize=1;strokeColor=none;fillColor=none;rotation=-90;" vertex="1" parent="1">
          <mxGeometry x="534" y="40" width="50" height="30" as="geometry" />
        </mxCell>
        <mxCell id="Ldm5HKHkYfVYGcOgO9pY-19" value="" style="ellipse;whiteSpace=wrap;html=1;aspect=fixed;fillColor=#000000;" vertex="1" parent="1">
          <mxGeometry x="170" y="90" width="10" height="10" as="geometry" />
        </mxCell>
        <mxCell id="Ldm5HKHkYfVYGcOgO9pY-20" value="" style="ellipse;whiteSpace=wrap;html=1;aspect=fixed;" vertex="1" parent="1">
          <mxGeometry x="195" y="90" width="10" height="10" as="geometry" />
        </mxCell>
        <mxCell id="Ldm5HKHkYfVYGcOgO9pY-31" value="" style="endArrow=none;html=1;rounded=0;" edge="1" parent="1" source="Ldm5HKHkYfVYGcOgO9pY-21">
          <mxGeometry width="50" height="50" relative="1" as="geometry">
            <mxPoint x="554" y="130" as="sourcePoint" />
            <mxPoint x="554" y="90" as="targetPoint" />
          </mxGeometry>
        </mxCell>
        <mxCell id="Ldm5HKHkYfVYGcOgO9pY-32" value="" style="endArrow=none;html=1;rounded=0;" edge="1" parent="1">
          <mxGeometry width="50" height="50" relative="1" as="geometry">
            <mxPoint x="558" y="130" as="sourcePoint" />
            <mxPoint x="558.3562352499396" y="89.98729349915448" as="targetPoint" />
          </mxGeometry>
        </mxCell>
        <mxCell id="Ldm5HKHkYfVYGcOgO9pY-21" value="" style="ellipse;whiteSpace=wrap;html=1;aspect=fixed;" vertex="1" parent="1">
          <mxGeometry x="554" y="80" width="10" height="10" as="geometry" />
        </mxCell>
        <mxCell id="Ldm5HKHkYfVYGcOgO9pY-33" value="" style="endArrow=none;html=1;rounded=0;" edge="1" parent="1">
          <mxGeometry width="50" height="50" relative="1" as="geometry">
            <mxPoint x="605" y="130" as="sourcePoint" />
            <mxPoint x="604.8562352499396" y="89.99729349915448" as="targetPoint" />
          </mxGeometry>
        </mxCell>
        <mxCell id="Ldm5HKHkYfVYGcOgO9pY-34" value="" style="ellipse;whiteSpace=wrap;html=1;aspect=fixed;" vertex="1" parent="1">
          <mxGeometry x="600" y="80" width="10" height="10" as="geometry" />
        </mxCell>
        <mxCell id="Ldm5HKHkYfVYGcOgO9pY-35" value="Valor" style="text;html=1;align=center;verticalAlign=middle;resizable=0;points=[];autosize=1;strokeColor=none;fillColor=none;rotation=-90;" vertex="1" parent="1">
          <mxGeometry x="580" y="40" width="50" height="30" as="geometry" />
        </mxCell>
        <mxCell id="Ldm5HKHkYfVYGcOgO9pY-36" value="nome" style="text;html=1;align=center;verticalAlign=middle;resizable=0;points=[];autosize=1;strokeColor=none;fillColor=none;rotation=-90;" vertex="1" parent="1">
          <mxGeometry x="370" y="290" width="50" height="30" as="geometry" />
        </mxCell>
        <mxCell id="Ldm5HKHkYfVYGcOgO9pY-37" value="" style="ellipse;whiteSpace=wrap;html=1;aspect=fixed;" vertex="1" parent="1">
          <mxGeometry x="390" y="328" width="10" height="10" as="geometry" />
        </mxCell>
        <mxCell id="Ldm5HKHkYfVYGcOgO9pY-39" value="Realiza" style="rhombus;whiteSpace=wrap;html=1;" vertex="1" parent="1">
          <mxGeometry x="350" y="130" width="80" height="80" as="geometry" />
        </mxCell>
        <mxCell id="Ldm5HKHkYfVYGcOgO9pY-40" value="" style="endArrow=none;html=1;rounded=0;entryX=0;entryY=0.5;entryDx=0;entryDy=0;exitX=1;exitY=0.5;exitDx=0;exitDy=0;" edge="1" parent="1" source="Ldm5HKHkYfVYGcOgO9pY-1" target="Ldm5HKHkYfVYGcOgO9pY-39">
          <mxGeometry width="50" height="50" relative="1" as="geometry">
            <mxPoint x="250" y="180" as="sourcePoint" />
            <mxPoint x="300" y="130" as="targetPoint" />
          </mxGeometry>
        </mxCell>
        <mxCell id="Ldm5HKHkYfVYGcOgO9pY-41" value="" style="endArrow=none;html=1;rounded=0;entryX=0;entryY=0.633;entryDx=0;entryDy=0;entryPerimeter=0;" edge="1" parent="1" target="Ldm5HKHkYfVYGcOgO9pY-3">
          <mxGeometry width="50" height="50" relative="1" as="geometry">
            <mxPoint x="430" y="170" as="sourcePoint" />
            <mxPoint x="480" y="120" as="targetPoint" />
          </mxGeometry>
        </mxCell>
        <mxCell id="Ldm5HKHkYfVYGcOgO9pY-42" value="Contém" style="rhombus;whiteSpace=wrap;html=1;" vertex="1" parent="1">
          <mxGeometry x="550" y="378" width="80" height="80" as="geometry" />
        </mxCell>
        <mxCell id="Ldm5HKHkYfVYGcOgO9pY-43" value="" style="endArrow=none;html=1;rounded=0;" edge="1" parent="1" source="Ldm5HKHkYfVYGcOgO9pY-42">
          <mxGeometry width="50" height="50" relative="1" as="geometry">
            <mxPoint x="600" y="370" as="sourcePoint" />
            <mxPoint x="590" y="190" as="targetPoint" />
          </mxGeometry>
        </mxCell>
        <mxCell id="Ldm5HKHkYfVYGcOgO9pY-44" value="" style="endArrow=none;html=1;rounded=0;exitX=1;exitY=0.5;exitDx=0;exitDy=0;entryX=0;entryY=0.5;entryDx=0;entryDy=0;" edge="1" parent="1" source="Ldm5HKHkYfVYGcOgO9pY-2" target="Ldm5HKHkYfVYGcOgO9pY-42">
          <mxGeometry width="50" height="50" relative="1" as="geometry">
            <mxPoint x="390" y="310" as="sourcePoint" />
            <mxPoint x="440" y="260" as="targetPoint" />
            <Array as="points" />
          </mxGeometry>
        </mxCell>
        <mxCell id="Ldm5HKHkYfVYGcOgO9pY-45" value="N" style="text;html=1;align=center;verticalAlign=middle;resizable=0;points=[];autosize=1;strokeColor=none;fillColor=none;" vertex="1" parent="1">
          <mxGeometry x="564" y="210" width="30" height="30" as="geometry" />
        </mxCell>
        <mxCell id="Ldm5HKHkYfVYGcOgO9pY-46" value="N" style="text;html=1;align=center;verticalAlign=middle;resizable=0;points=[];autosize=1;strokeColor=none;fillColor=none;" vertex="1" parent="1">
          <mxGeometry x="480" y="388" width="30" height="30" as="geometry" />
        </mxCell>
        <mxCell id="Ldm5HKHkYfVYGcOgO9pY-47" value="N" style="text;html=1;align=center;verticalAlign=middle;resizable=0;points=[];autosize=1;strokeColor=none;fillColor=none;" vertex="1" parent="1">
          <mxGeometry x="480" y="140" width="30" height="30" as="geometry" />
        </mxCell>
        <mxCell id="Ldm5HKHkYfVYGcOgO9pY-48" value="1" style="text;html=1;align=center;verticalAlign=middle;resizable=0;points=[];autosize=1;strokeColor=none;fillColor=none;" vertex="1" parent="1">
          <mxGeometry x="250" y="145" width="30" height="30" as="geometry" />
        </mxCell>
      </root>
    </mxGraphModel>
  </diagram>
</mxfile>
